<?xml version="1.0" encoding="UTF-8"?>
<svg id="Layer_2" data-name="Layer 2" xmlns="http://www.w3.org/2000/svg" viewBox="0 0 986.44 242.38">
  <defs>
    <style>
      .cls-1 {
        fill: #fff;
        font-family: CodecWarmTrial-Light, 'Codec Warm Trial';
        font-size: 35.1px;
        font-weight: 300;
      }

      .cls-2 {
        fill: #26a69a;
      }

      .cls-3 {
        fill: #d1d1d1;
      }
    </style>
  </defs>
  <g id="Layer_1-2" data-name="Layer 1">
    <g>
      <g>
        <path class="cls-2" d="M38.73,99.4c0,1.46-.1,2.92-.28,4.33-1.39,11.31-8.21,20.93-17.78,26.19-3.75,2.09-7.96,3.48-12.44,4.03H0v-17.75c1.26.3,2.57.45,3.9.45,9.52,0,17.25-7.73,17.25-17.25,0-4.18-1.49-8.01-3.95-10.98-.05-.05-.08-.1-.15-.13-.78-.98-1.71-1.86-2.72-2.59l-.03-.03c-5.29-5.14-10.07-10.78-14.3-16.85V28.58c.13-.03.25-.03.38-.03.83,3.02,1.79,5.97,2.9,8.86.03.08.05.15.08.23,1.16,3.05,2.49,6.04,3.95,8.94,1.69,3.4,3.58,6.67,5.67,9.85,4,6.09,8.66,11.71,13.88,16.77.03.03.08.05.1.1.05.03.08.08.13.1.63.53,1.21,1.11,1.79,1.69.08.08.13.15.23.23,4.94,5.16,8.31,11.86,9.32,19.32.23,1.56.33,3.15.33,4.76Z"/>
        <rect class="cls-2" y="142.97" width="133.93" height="17.88"/>
        <path class="cls-3" d="M46.24,87.82c-.08-.03-.13-.05-.18-.1.05-.05.08-.1.13-.1.03.08.05.13.05.2Z"/>
        <path class="cls-3" d="M66.03,96.48c-.08.03-.13.08-.2.1v-.15c.08,0,.15.03.2.05Z"/>
        <path class="cls-3" d="M91.75,118.47c-1.84-.03-3.68-.13-5.49-.25.58-.05,1.18-.08,1.79-.08,1.26,0,2.49.13,3.7.33Z"/>
        <path class="cls-3" d="M91.75,118.47c-1.84-.03-3.68-.13-5.49-.25.58-.05,1.18-.08,1.79-.08,1.26,0,2.49.13,3.7.33Z"/>
        <path class="cls-3" d="M91.75,118.47c-1.84-.03-3.68-.13-5.49-.25.58-.05,1.18-.08,1.79-.08,1.26,0,2.49.13,3.7.33Z"/>
        <path class="cls-3" d="M91.75,118.47c-1.84-.03-3.68-.13-5.49-.25.58-.05,1.18-.08,1.79-.08,1.26,0,2.49.13,3.7.33Z"/>
        <path class="cls-3" d="M65.83,96.43v.15c.08-.03.13-.08.2-.1-.05-.02-.13-.05-.2-.05ZM0,27.12v1.46c.13-.03.25-.03.38-.03-.13-.48-.25-.96-.38-1.44ZM46.19,87.62c-.05,0-.08.05-.13.1.05.05.1.08.18.1,0-.08-.03-.13-.05-.2ZM95.17,0c-10.38,0-18.81,8.44-18.81,18.84s8.44,18.81,18.81,18.81,18.84-8.44,18.84-18.81S105.57,0,95.17,0ZM88.04,118.14c-.6,0-1.21.03-1.79.08,1.81.13,3.65.23,5.49.25-1.21-.2-2.44-.33-3.7-.33Z"/>
        <path class="cls-2" d="M133.93,23.95v27.12c-10.65,8.46-24.1,13.5-38.76,13.5-17.07,0-32.54-6.85-43.82-17.98-2.77-2.72-5.31-5.72-7.5-8.94-7.03-10.1-11.13-22.34-11.13-35.56,0-.7,0-1.38.05-2.09h17.98c-.03.71-.05,1.39-.05,2.09,0,14.53,6.98,27.45,17.73,35.56,7.45,5.62,16.7,8.94,26.75,8.94s19.32-3.32,26.77-8.94c4.86-3.68,8.97-8.34,11.99-13.7Z"/>
        <path class="cls-2" d="M133.93,90.96v30.17c-1.21-2.74-2.67-5.34-4.33-7.78-3.95-5.79-9.09-10.7-15.06-14.41-6.02-3.73-12.89-6.25-20.27-7.13h-.2s-.08,0-.1-.03c-1.96-.25-3.88-.38-5.92-.38-.35,0-.73,0-1.08.02h-.05c-4.26.08-8.44.71-12.37,1.81-.08-1.33-.23-2.64-.43-3.93-.65-4.76-1.81-9.39-3.4-13.8,5.54-1.44,11.33-2.22,17.33-2.22,14.66,0,28.26,4.61,39.39,12.49,2.27,1.59,4.43,3.3,6.5,5.16Z"/>
        <path class="cls-2" d="M128.56,133.95h-18.26c-2.77-7.98-9.75-14.03-18.26-15.46h-.2s-.08,0-.1-.03c-1.21-.2-2.44-.33-3.7-.33-.6,0-1.21.03-1.79.08-7.23.53-13.55,4.33-17.48,9.92,1.69-3.75,3.02-7.68,4-11.76,1.11-4.43,1.79-9.02,1.96-13.73,3.7-1.28,7.63-2.01,11.76-2.17h.1c.48-.03.96-.03,1.44-.03,1.91,0,3.78.13,5.62.38h.23s.05,0,.08.03c10.58,1.54,19.87,7.08,26.22,14.98,4.16,5.16,7.1,11.33,8.39,18.11Z"/>
        <path class="cls-2" d="M65.91,99.4c0,2.64-.18,5.26-.5,7.83-.3,2.42-.73,4.79-1.33,7.08-1.74,7.13-4.71,13.75-8.69,19.64h-24.4c4.71-3.7,8.64-8.34,11.53-13.62.33-.63.65-1.26.96-1.91,1.56-3.25,2.74-6.7,3.48-10.35.55-2.8.86-5.69.86-8.66,0-4-.53-7.88-1.56-11.56v-.02c0-.08-.03-.13-.05-.2-1.96-7.1-5.67-13.42-10.58-18.59l-.05-.05c-.98-1.03-2.01-1.99-3.1-2.92-.03-.03-.05-.05-.08-.05-5.79-5.74-10.8-12.26-14.86-19.42-1.56-2.75-3-5.57-4.26-8.49-.08-.15-.13-.3-.18-.45-1.26-2.9-2.34-5.87-3.27-8.92-2.54-8.26-3.9-17.05-3.9-26.17,0-.86,0-1.71.03-2.57h17.88c-.05.68-.05,1.39-.05,2.09,0,11.43,2.69,22.26,7.5,31.83.6,1.28,1.26,2.52,1.99,3.73,1.79,3.15,3.83,6.12,6.09,8.94,0,0,2.23,3.48,5.41,6.18,1.33,1.17,12.16,10.89,17.45,25.6,1.38,3.84,2.14,7.34,2.29,8.03.71,3.25,1.16,6.6,1.31,10.02v.15c.05.93.08,1.89.08,2.82Z"/>
        <path class="cls-2" d="M114.01,18.84c0,10.38-8.44,18.81-18.84,18.81s-18.81-8.44-18.81-18.81S84.79,0,95.17,0s18.84,8.44,18.84,18.84Z"/>
      </g>
      <g>
        <path class="cls-2" d="M986.44,28.49v40.44c-3.1-7.89-7.65-15.17-13.49-21.64-1.15-1.27-2.33-2.48-3.56-3.63v-15.17h17.05Z"/>
        <path class="cls-3" d="M969.39,50.51c-12.26-13.51-29.91-22-49.55-22-36.86,0-66.77,29.91-66.77,66.79s29.91,66.79,66.77,66.79c19.64,0,37.29-8.49,49.55-22v22h17.05v-71.58c-1.06-15.39-7.31-29.26-17.05-40.01ZM919.84,144.83c-27.38,0-49.58-22.19-49.58-49.53s22.19-49.58,49.58-49.58,49.55,22.19,49.55,49.58-22.19,49.53-49.55,49.53Z"/>
        <path class="cls-3" d="M627.3,28.51c-36.93,0-66.79,29.91-66.79,66.79s29.86,66.79,66.79,66.79,66.74-29.91,66.74-66.79-29.86-66.79-66.74-66.79ZM627.3,144.88c-27.39,0-49.59-22.2-49.59-49.59s22.2-49.54,49.59-49.54,49.54,22.2,49.54,49.54-22.2,49.59-49.54,49.59Z"/>
        <rect class="cls-3" x="325.64" y=".68" width="17.05" height="161.42"/>
        <path class="cls-2" d="M514.67,28.51v13.63c-7.41,6.8-13.3,15.24-17.05,24.74V28.51h17.05Z"/>
        <path class="cls-3" d="M264.35.56h-82.73v161.52h17.05v-60.28h65.68c27.99,0,50.66-22.71,50.62-50.7h0c-.04-27.93-22.69-50.55-50.62-50.55ZM264.27,84.75h-65.6V17.61h65.6c18.54,0,33.57,15.03,33.57,33.57h0c0,18.54-15.03,33.57-33.57,33.57Z"/>
        <path class="cls-3" d="M420.15,85.37h48.58c-4.59-22.65-24.62-39.65-48.58-39.65-27.34,0-49.54,22.2-49.54,49.59s22.2,49.54,49.54,49.54c18.61,0,34.81-10.24,43.28-25.37h18.97c-9.69,24.97-33.9,42.63-62.25,42.63-36.87,0-66.79-29.91-66.79-66.79s29.91-66.79,66.79-66.79c33.5,0,61.24,24.72,66.08,56.85.45,3.23.71,6.56.71,9.94,0,2.42-.15,4.79-.4,7.11h-66.38v-17.05Z"/>
        <path class="cls-3" d="M560.52,28.99v17.05c-12.67,0-24.12,5.14-32.41,13.44-8.29,8.29-13.44,19.74-13.44,32.41v70.21h-17.05v-70.21c0-16.66,6.47-31.78,17.05-43.04,11.44-12.21,27.75-19.86,45.85-19.86Z"/>
        <path class="cls-3" d="M838.6,32.79v128.56h-16.74v-80.04c-11.94,13.11-29.1,21.34-48.18,21.34s-36.41-8.27-48.39-21.46v80.17h-16.78V37.46c0-2.88.17-5.68.58-8.48h16.2v8.48c0,26.68,21.63,48.35,48.39,48.35s46.6-20,48.18-45.26c.08-1,.13-2.05.13-3.09s-.04-2.05-.13-3.09v-5.39h16.37c.17,1.25.29,2.51.38,3.8Z"/>
      </g>
      <text class="cls-1" transform="translate(279.17 215.01)"><tspan x="0" y="0">Safety Engineered. Access Designed</tspan></text>
    </g>
  </g>
</svg>